<svg width="80" height="80" viewBox="0 0 80 80" fill="none" xmlns="http://www.w3.org/2000/svg">
<path d="M80 26.6666H0V53.3333H80V26.6666Z" fill="url(#paint0_linear_212_321)"/>
<path d="M80 26.6667H0V4.44444C0 1.98889 1.98889 0 4.44444 0H75.5556C78.0111 0 80 1.98889 80 4.44444V26.6667Z" fill="url(#paint1_linear_212_321)"/>
<path d="M75.5556 80H4.44444C1.98889 80 0 78.0112 0 75.5556V53.3334H80V75.5556C80 78.0112 78.0111 80 75.5556 80Z" fill="url(#paint2_linear_212_321)"/>
<path opacity="0.05" d="M55.5554 0H24.4443V80H55.5554V0Z" fill="black"/>
<path opacity="0.07" d="M54.4446 0H25.5557V80H54.4446V0Z" fill="black"/>
<path d="M53.3332 0H26.6665V80H53.3332V0Z" fill="url(#paint3_linear_212_321)"/>
<path d="M40 11C32.8197 11 27 17.1778 27 24.8V80H53V24.8C53 17.1778 47.1803 11 40 11Z" fill="url(#paint4_linear_212_321)"/>
<path opacity="0.05" d="M31.1109 57.7778C29.4887 57.7778 27.9776 57.3334 26.6665 56.5556V59.0889C28.0221 59.6667 29.5332 60 31.1109 60H48.8887C50.4665 60 51.9776 59.6667 53.3332 59.0889V56.5556C52.0221 57.3334 50.5109 57.7778 48.8887 57.7778H31.1109ZM51.1109 35.5556V48.8889C51.1109 50.1112 50.1109 51.1112 48.8887 51.1112H44.4443V46.6667C44.4443 44.2223 42.4443 42.2223 39.9998 42.2223C37.5554 42.2223 35.5554 44.2223 35.5554 46.6667V51.1112H31.1109C29.8887 51.1112 28.8887 50.1112 28.8887 48.8889V35.5556C28.8887 34.3334 27.8887 33.3334 26.6665 33.3334V48.8889C26.6665 51.3334 28.6665 53.3334 31.1109 53.3334H37.7776V46.6667C37.7776 45.4445 38.7776 44.4445 39.9998 44.4445C41.2221 44.4445 42.2221 45.4445 42.2221 46.6667V53.3334H48.8887C51.3332 53.3334 53.3332 51.3334 53.3332 48.8889V33.3334C52.1109 33.3334 51.1109 34.3334 51.1109 35.5556Z" fill="black"/>
<path opacity="0.07" d="M52.2221 35.5556V48.8889C52.2221 50.7333 50.7332 52.2222 48.8887 52.2222H43.3332V46.6667C43.3332 44.8222 41.8443 43.3333 39.9998 43.3333C38.1554 43.3333 36.6665 44.8222 36.6665 46.6667V52.2222H31.1109C29.2665 52.2222 27.7776 50.7333 27.7776 48.8889V35.5556C27.7776 34.9333 27.2887 34.4445 26.6665 34.4445V48.8889C26.6665 51.3333 28.6665 53.3333 31.1109 53.3333H37.7776V46.6667C37.7776 45.4445 38.7776 44.4445 39.9998 44.4445C41.2221 44.4445 42.2221 45.4445 42.2221 46.6667V53.3333H48.8887C51.3332 53.3333 53.3332 51.3333 53.3332 48.8889V34.4445C52.7109 34.4445 52.2221 34.9333 52.2221 35.5556ZM31.1109 57.7778C29.4887 57.7778 27.9776 57.3334 26.6665 56.5556V57.8445C27.9998 58.5111 29.5109 58.8889 31.1109 58.8889H48.8887C50.4887 58.8889 51.9998 58.5111 53.3332 57.8445V56.5556C52.0221 57.3334 50.5109 57.7778 48.8887 57.7778H31.1109Z" fill="black"/>
<path d="M57.7777 37.7778V48.8889C57.7777 53.7778 53.7777 57.7778 48.8888 57.7778H31.1111C26.2222 57.7778 22.2222 53.7778 22.2222 48.8889V37.7778C22.2222 35.3223 24.2111 33.3334 26.6666 33.3334V48.8889C26.6666 51.3445 28.6555 53.3334 31.1111 53.3334H37.7777V46.6667C37.7777 45.44 38.7733 44.4445 39.9999 44.4445C41.2266 44.4445 42.2222 45.44 42.2222 46.6667V53.3334H48.8888C51.3444 53.3334 53.3333 51.3445 53.3333 48.8889V33.3334C55.7777 33.3334 57.7777 35.3334 57.7777 37.7778Z" fill="url(#paint5_linear_212_321)"/>
<circle cx="40" cy="34" r="2.5" fill="#953B13" stroke="#B0631A"/>
<path d="M37.7798 52H42.2198V53.78C42.2198 55.0061 41.2259 56 39.9998 56V56C38.7737 56 37.7798 55.0061 37.7798 53.78V52Z" fill="url(#paint6_linear_212_321)"/>
<rect x="27" y="22" width="26.66" height="6" fill="url(#paint7_radial_212_321)"/>
<rect x="27.15" y="22.15" width="26.36" height="5.7" stroke="#AF621A" stroke-opacity="0.55" stroke-width="0.3"/>
<defs>
<linearGradient id="paint0_linear_212_321" x1="40" y1="26.6666" x2="40" y2="53.3333" gradientUnits="userSpaceOnUse">
<stop offset="0.233" stop-color="#41A5EE"/>
<stop offset="0.317" stop-color="#3994DE"/>
<stop offset="0.562" stop-color="#2366B4"/>
<stop offset="0.751" stop-color="#154A9B"/>
<stop offset="0.86" stop-color="#103F91"/>
</linearGradient>
<linearGradient id="paint1_linear_212_321" x1="40" y1="0" x2="40" y2="26.6667" gradientUnits="userSpaceOnUse">
<stop offset="0.233" stop-color="#E8457C"/>
<stop offset="0.272" stop-color="#E14177"/>
<stop offset="0.537" stop-color="#B32C59"/>
<stop offset="0.742" stop-color="#971E46"/>
<stop offset="0.86" stop-color="#8C193F"/>
</linearGradient>
<linearGradient id="paint2_linear_212_321" x1="40" y1="53.3334" x2="40" y2="80" gradientUnits="userSpaceOnUse">
<stop offset="0.233" stop-color="#33C481"/>
<stop offset="0.325" stop-color="#2EB173"/>
<stop offset="0.566" stop-color="#228353"/>
<stop offset="0.752" stop-color="#1B673F"/>
<stop offset="0.86" stop-color="#185C37"/>
</linearGradient>
<linearGradient id="paint3_linear_212_321" x1="39.9998" y1="0" x2="39.9998" y2="80" gradientUnits="userSpaceOnUse">
<stop offset="0.039" stop-color="#F8C819"/>
<stop offset="0.197917" stop-color="#AF4316"/>
</linearGradient>
<linearGradient id="paint4_linear_212_321" x1="40" y1="11" x2="40" y2="80" gradientUnits="userSpaceOnUse">
<stop stop-color="#EAAD29"/>
<stop offset="0.245" stop-color="#D98E24"/>
<stop offset="0.632" stop-color="#C0631C"/>
<stop offset="0.828" stop-color="#B75219"/>
<stop offset="0.871" stop-color="#A94917"/>
<stop offset="0.949" stop-color="#943B13"/>
<stop offset="1" stop-color="#8C3612"/>
</linearGradient>
<linearGradient id="paint5_linear_212_321" x1="39.9999" y1="33.3334" x2="39.9999" y2="57.7778" gradientUnits="userSpaceOnUse">
<stop offset="0.613" stop-color="#E6E6E6"/>
<stop offset="0.785" stop-color="#E4E4E4"/>
<stop offset="0.857" stop-color="#DDDDDD"/>
<stop offset="0.91" stop-color="#D1D1D1"/>
<stop offset="0.953" stop-color="#BFBFBF"/>
<stop offset="0.967" stop-color="#B8B8B8"/>
</linearGradient>
<linearGradient id="paint6_linear_212_321" x1="40" y1="56" x2="40" y2="52" gradientUnits="userSpaceOnUse">
<stop stop-color="#44270E" stop-opacity="0.49"/>
<stop offset="0.625015" stop-color="#271605" stop-opacity="0.12"/>
<stop offset="1" stop-color="#C4C4C4" stop-opacity="0"/>
</linearGradient>
<radialGradient id="paint7_radial_212_321" cx="0" cy="0" r="1" gradientUnits="userSpaceOnUse" gradientTransform="translate(40.3301 25) scale(16 71.0933)">
<stop stop-color="#D38522"/>
<stop offset="0.341665" stop-color="#DC9E1A" stop-opacity="0.831695"/>
<stop offset="1" stop-color="#BA6D1C"/>
</radialGradient>
</defs>
</svg>
