<svg xmlns="http://www.w3.org/2000/svg" viewBox="0 0 900.45 523.12"><g id="Слой_2" data-name="Слой 2"><g id="Слой_1-2" data-name="Слой 1"><path d="M.21 410.19v-20.88h7.46q3.18-4 6.81-16.26t4.62-31.47l.7-13.92h41v61.64h9.4v20.88h-8v-12.92H8.16v12.92H.21zm26.84-62.14a131.4 131.4 0 01-4.28 27q-3.18 11.08-5.77 14.26h35.29v-53.69H27.93zm53.29 69.1v-64.62h8v5.27a17.23 17.23 0 016.51-4.52 22.16 22.16 0 018.7-1.74q9.45 0 15.06 6.31t5.62 16.35q0 10.35-6.46 17.2t-16.8 6.86q-8 0-12.63-3.08v22zM101.22 359a15.84 15.84 0 00-12.92 6.16v22.17a20.86 20.86 0 0011.93 3.48q7.06 0 11.28-4.57a16.6 16.6 0 004.23-11.73q0-7-3.88-11.23T101.22 359zm73.27-6.47l-17.9 44.74q-4.77 11.64-8.45 15.76a11.25 11.25 0 01-8.65 4.12 15.13 15.13 0 01-8.45-2.78l2.58-6.07a12.93 12.93 0 005 1.49 6.77 6.77 0 005-2.38 27.17 27.17 0 004.52-7.76l1-2.38-21.47-44.74h9.55l13.1 28.47c.27.59 1.16 2.85 2.69 6.76.6-2.19 1.29-4.47 2.09-6.86l10.34-28.33zm8.15 44.74v-44.74H211V360h-20.41v37.28zm38.13-5.62q-6.61-6.61-6.61-16.75t6.61-16.75q6.61-6.61 17.25-6.61t17.25 6.61q6.61 6.62 6.61 16.75t-6.61 16.75q-6.61 6.62-17.25 6.61t-17.25-6.61zm1.84-16.75a15.77 15.77 0 004.32 11.43 16 16 0 0022.18 0 17.32 17.32 0 000-22.91 16 16 0 00-22.12 0 15.63 15.63 0 00-4.38 11.48zm86 11.23l2.49 6.27q-6.47 5.87-16.8 5.86-10.83 0-17.4-6.36t-6.56-17q0-10.14 6.16-16.75t16.9-6.61a20.52 20.52 0 0114.81 5.72q6 5.72 6 14.76a25.55 25.55 0 01-.5 5.37h-34.4a13.7 13.7 0 004.72 9.84 16.31 16.31 0 0010.89 3.58q8.72-.01 13.69-4.68zM293 359a14.16 14.16 0 00-9.74 3.33 13.38 13.38 0 00-4.47 8.6h27.14a12.29 12.29 0 00-3.73-8.75Q298.77 359 293 359zM0 523.12v-25.6h8q3.3-4 7-16.59t4.53-30.88l.75-14.94h46.3v62.41H76.7v25.6H64.43v-13.33H12.26v13.33zm31.79-62.73A117.37 117.37 0 0127.84 484q-3 10.45-5.44 13.55h31.15v-50.17H33zM122 496.34l3.52 8.64q-7.05 6-18.35 6-11.58.02-18.68-6.98t-7.09-18.22a24.91 24.91 0 016.93-18q6.93-7.2 18.46-7.2a22.61 22.61 0 0116.11 6.24q6.61 6.24 6.61 16.05a24 24 0 01-.75 6.61H94.09a11.87 11.87 0 004.7 8.27 15.8 15.8 0 009.71 2.94 20.86 20.86 0 0013.5-4.35zm-15.79-25.49q-10.45 0-12.59 10.46h23.58a9.79 9.79 0 00-2.88-7.47 11 11 0 00-8.07-2.99zm63.19 38.94v-35.74h-12.69l-.32 5.12q-1.17 12.9-3.89 19.84t-6.83 9.33q-4.11 2.4-10.94 2.4l-1.07-11.95a6.31 6.31 0 004.43-1.33q2.08-1.54 4-6.83a50.71 50.71 0 002.45-13.92l.75-14.94h36.38v48H169.4zm30.14-5.93q-7.2-7.1-7.2-18.08t7.2-18.08q7.2-7.09 18.94-7.09t18.94 7.09q7.2 7.1 7.2 18.08t-7.2 18.08q-7.2 7.09-18.94 7.1t-18.94-7.1zm5.92-18.07a13.82 13.82 0 003.68 9.87 12.31 12.31 0 009.34 3.89 12.57 12.57 0 009.44-3.79 13.71 13.71 0 003.68-10 13.52 13.52 0 00-3.73-9.82 13.33 13.33 0 00-18.67-.05 13.4 13.4 0 00-3.74 9.9z" fill="#231f20"/><path fill="#f3e700" d="M203.27 0h259.05v259.05H203.27z"/><path d="M681.39 259h-259V129.13A129.13 129.13 0 01551.47 0a129.92 129.92 0 01129.92 129.92z" fill="#00e1bb"/><path d="M770.94 259a129.53 129.53 0 01-129.53-129.48A129.52 129.52 0 01770.93 0a129.52 129.52 0 01129.52 129.52A129.51 129.51 0 01770.94 259z" fill="#5267ff"/><path d="M130.31 259H.21V0h129a130.1 130.1 0 01130.1 130.1 128.94 128.94 0 01-129 128.9z" fill="#ff7e86"/><path d="M641.47 129.53a129.14 129.14 0 0040 93.59v-93.19a129.34 129.34 0 00-20.08-69.4 128.88 128.88 0 00-19.92 69z" fill="#4868ea"/><path d="M422.38 129.13v129.93h40V35.71a128.79 128.79 0 00-40 93.42z" fill="#60cfaf"/><path d="M203.29 23.16v213.28a128.8 128.8 0 0056-106.34 130 130 0 00-56-106.94z" fill="#e77188"/></g></g></svg>