<svg width="16" height="10" viewBox="0 0 16 10" fill="none" xmlns="http://www.w3.org/2000/svg">
<path d="M5.14286 0C2.30134 0 0 2.23741 0 5C0 7.76259 2.30134 10 5.14286 10C7.98438 10 10.2857 7.76259 10.2857 5C10.2857 4.65712 10.2478 4.32292 10.1786 3.99957L10.1518 3.88889H5.14286V5.55556H8.57143C8.29911 7.13108 6.84152 8.33333 5.14286 8.33333C3.25 8.33333 1.71429 6.84028 1.71429 5C1.71429 3.15972 3.25 1.66667 5.14286 1.66667C6 1.66667 6.78125 1.97483 7.38393 2.48047L8.61161 1.31076C7.69643 0.496962 6.47991 0 5.14286 0ZM13.1429 2.22222V3.88889H11.4286V5H13.1429V6.66667H14.2857V5H16V3.88889H14.2857V2.22222H13.1429Z" fill="#4C4C4C"/>
</svg>
