<?xml version="1.0" encoding="UTF-8" standalone="no"?><svg width="440" height="360" viewBox="0 0 440 360" fill="none" xmlns="http://www.w3.org/2000/svg">
<g clip-path="url(#clip0)">
<path d="M198.486 182.32H174.113C173.864 182.32 173.74 182.445 173.616 182.696C172.994 193.858 170.88 205.772 167.896 215.554C167.896 215.679 167.896 215.805 168.02 215.93C168.144 216.056 168.269 216.056 168.393 216.056H176.725C176.973 216.056 177.098 215.93 177.098 215.805C179.46 208.28 181.326 198.498 182.072 190.221H190.03V215.679C190.03 215.93 190.279 216.181 190.528 216.181H198.486C198.735 216.181 198.984 215.93 198.984 215.679V182.696C198.984 182.445 198.735 182.32 198.486 182.32V182.32ZM301.574 182.32H293.616C293.367 182.32 293.118 182.57 293.118 182.821V208.28C291.377 208.782 289.636 209.033 287.647 209.033C282.424 209.033 281.181 207.402 281.181 200.379V182.821C281.181 182.57 280.932 182.32 280.683 182.32H272.849C272.6 182.32 272.352 182.57 272.352 182.821V201.257C272.352 212.795 276.206 217.184 286.03 217.184C291.626 217.184 297.968 215.679 301.699 214.3C301.823 214.174 301.947 214.049 301.947 213.924V182.821C302.072 182.445 301.823 182.32 301.574 182.32V182.32ZM132.953 182.32H124.87C124.621 182.32 124.497 182.445 124.497 182.696C123.253 187.712 120.642 196.24 117.16 205.145L109.077 182.696C108.953 182.57 108.828 182.445 108.704 182.445H100.497C100.372 182.445 100.248 182.57 100.124 182.696C99.9992 182.821 99.9992 182.947 100.124 183.072L112.31 216.683C111.067 219.316 109.947 221.448 108.828 223.455C107.958 224.96 107.212 226.465 106.466 227.97C106.341 228.095 106.341 228.221 106.466 228.346C106.59 228.471 106.714 228.597 106.839 228.597H115.668C115.792 228.597 116.041 228.471 116.041 228.346C117.533 225.462 119.398 221.448 121.139 217.31C126.362 205.019 130.466 193.481 133.574 182.947C133.574 182.821 133.574 182.696 133.45 182.57C133.201 182.32 133.077 182.32 132.953 182.32V182.32ZM161.927 208.28C161.927 208.155 161.802 208.029 161.678 208.029H161.305C159.315 208.782 155.709 209.283 153.222 209.283C147.626 209.283 145.015 207.778 145.015 199.25C145.015 192.353 145.885 189.217 153.222 189.217C155.336 189.217 157.201 189.468 159.688 190.221C159.937 190.221 160.061 190.221 160.186 189.97C161.056 188.214 162.175 186.082 163.419 183.448V183.072C163.419 182.947 163.295 182.821 163.17 182.821C159.937 181.818 156.082 181.191 152.6 181.191C141.035 181.191 135.813 186.709 135.813 199.125C135.813 211.666 141.035 217.31 152.6 217.31C155.46 217.31 161.305 216.683 164.041 215.554C164.289 215.429 164.414 215.178 164.289 214.927L161.927 208.28V208.28ZM237.657 182.32H229.574C229.326 182.32 229.201 182.445 229.201 182.696C227.958 187.838 225.346 196.24 221.864 205.145L213.782 182.696C213.657 182.57 213.533 182.445 213.408 182.445H205.201C205.077 182.445 204.953 182.57 204.828 182.696C204.704 182.821 204.704 182.947 204.828 183.072L217.015 216.683C215.771 219.316 214.652 221.448 213.533 223.455C212.662 224.96 211.916 226.465 211.17 228.095C211.046 228.221 211.046 228.346 211.17 228.471C211.295 228.597 211.419 228.722 211.543 228.722H220.372C220.497 228.722 220.745 228.597 220.745 228.471C222.238 225.587 224.103 221.574 225.844 217.435C230.942 205.145 235.17 193.607 238.279 183.072C238.279 182.947 238.279 182.821 238.155 182.696C237.906 182.32 237.782 182.32 237.657 182.32V182.32ZM267.502 182.32H243.999C243.75 182.32 243.502 182.57 243.502 182.821V215.805C243.502 216.056 243.75 216.306 243.999 216.306H251.958C252.206 216.306 252.455 216.056 252.455 215.805V190.346H264.766C264.89 190.346 265.139 190.221 265.139 190.095C266.134 187.838 267.004 185.455 267.999 183.072V182.696C267.75 182.32 267.626 182.32 267.502 182.32" fill="#EF4058"/>
<path d="M142.404 131.653C130.964 131.653 126.487 136.67 126.487 149.336C126.487 162.254 130.964 167.27 142.404 167.27C153.969 167.27 158.446 162.254 158.446 149.336C158.446 136.544 153.969 131.653 142.404 131.653ZM142.404 159.871C137.181 159.871 135.565 158.491 135.565 149.462C135.565 139.93 137.306 139.053 142.404 139.053C147.627 139.053 149.368 139.93 149.368 149.462C149.368 158.491 147.751 159.871 142.404 159.871ZM190.28 158.491C190.28 158.366 190.155 158.241 190.031 158.241H189.658C187.668 158.993 184.062 159.495 181.575 159.495C175.979 159.495 173.368 157.99 173.368 149.462C173.368 142.564 174.238 139.429 181.575 139.429C183.689 139.429 185.554 139.68 188.041 140.432C188.29 140.432 188.414 140.432 188.539 140.181C189.409 138.425 190.528 136.293 191.772 133.66V133.284C191.772 133.158 191.648 133.033 191.523 133.033C188.29 132.029 184.435 131.402 180.953 131.402C169.389 131.402 164.166 136.92 164.166 149.336C164.166 161.878 169.389 167.521 180.953 167.521C183.813 167.521 189.658 166.894 192.394 165.765C192.642 165.64 192.767 165.389 192.642 165.138L190.28 158.491V158.491ZM124 132.531H100.497C100.249 132.531 100 132.782 100 133.033V166.016C100 166.267 100.249 166.518 100.497 166.518H108.456C108.705 166.518 108.953 166.267 108.953 166.016V140.432H121.14C121.264 140.432 121.513 140.307 121.513 140.181C122.508 137.924 123.378 135.541 124.373 133.158V132.782C124.249 132.656 124.124 132.531 124 132.531Z" fill="#1466AC"/>
<path d="M338.757 212.67V212.168C338.757 211.917 338.757 211.541 338.881 211.29C339.254 206.65 339.503 201.007 339.752 194.485V193.984C339.876 189.594 340.001 184.828 340.001 179.937C340.001 175.046 339.876 170.281 339.752 165.891V165.389C339.503 158.993 339.254 153.224 338.881 148.584C338.881 148.333 338.881 147.957 338.757 147.706V147.205C338.757 146.703 338.633 146.327 338.633 145.825V145.323C338.26 140.432 338.011 137.422 337.887 137.172C337.887 136.67 337.762 136.168 337.762 135.792V135.416C337.638 134.538 337.513 133.785 337.265 132.908C337.265 132.782 337.265 132.657 337.14 132.531C335.026 122.373 329.431 111.211 322.467 102.809C319.731 99.5479 316.871 96.6634 313.887 94.4059C313.638 94.1551 310.156 91.6469 304.684 87.7591C298.342 83.3696 289.265 77.2244 278.944 71.2046C260.539 60.2937 244.249 52.6436 242.011 51.7657C241.887 51.7657 241.887 51.6403 241.887 51.6403C237.037 49.5083 231.192 48.0033 224.85 47.3762C223.607 47.2508 222.363 47.1254 221.12 47.1254C219.876 47 218.757 47 217.638 47H215.897C207.441 47.2508 199.607 48.7558 193.389 51.6403C192.519 52.0165 175.98 59.6667 157.203 70.8284L156.456 71.2046C137.182 82.6172 122.135 93.9043 121.513 94.4059C116.788 97.9175 112.56 102.432 108.705 108.201C107.835 109.455 107.835 112.716 111.565 112.716H121.14C125.244 112.716 126.239 110.208 130.84 106.822C135.938 103.059 146.011 95.5347 164.415 84.4984C177.721 76.5974 190.156 70.3267 196.249 67.4422C196.374 67.4422 196.498 67.3168 196.622 67.3168C196.622 67.3168 196.747 67.3168 196.747 67.1914C196.747 67.1914 196.871 67.1914 196.871 67.066C196.995 67.066 197.12 66.9406 197.12 66.9406C197.244 66.9406 197.368 66.8152 197.493 66.8152C198.985 66.0627 199.98 65.6865 199.98 65.6865C204.208 63.8053 210.177 62.5512 216.519 62.4257H219.006C220.871 62.4257 222.736 62.5512 224.477 62.802C228.332 63.3036 231.814 64.0561 234.674 65.3102C234.923 65.4356 235.296 65.5611 235.545 65.6865C235.545 65.6865 235.669 65.8119 236.042 65.9373C238.902 67.1914 254.322 74.5908 271.109 84.4984C281.058 90.3927 289.887 96.2871 295.98 100.551C301.327 104.314 304.56 106.696 304.684 106.822C307.047 108.578 309.41 111.086 311.648 113.845C317.244 121.119 321.845 131.026 322.591 138.677C322.591 138.802 322.964 141.812 323.337 146.954C323.337 147.33 323.337 147.581 323.462 147.957V148.71C323.462 149.211 323.586 149.587 323.586 150.089V150.591C323.586 150.842 323.586 151.218 323.71 151.469C323.71 152.096 323.835 152.723 323.835 153.35C323.835 153.726 323.835 154.102 323.959 154.479V154.729C323.959 155.231 323.959 155.607 324.083 156.109V157.112C324.456 163.634 324.705 171.409 324.705 179.561C324.705 187.713 324.456 195.488 324.083 202.01V203.013C324.083 203.515 324.083 203.891 323.959 204.393V204.644C323.959 205.02 323.959 205.396 323.835 205.772C323.835 206.399 323.71 207.026 323.71 207.653C323.71 208.03 323.71 208.281 323.586 208.531V209.033C323.586 209.535 323.462 209.911 323.462 210.413V211.165C323.462 211.541 323.462 211.917 323.337 212.168C322.964 217.31 322.591 220.446 322.591 220.446C321.845 228.096 317.244 238.003 311.648 245.277C309.41 248.162 307.047 250.545 304.684 252.3C304.56 252.3 301.327 254.809 295.98 258.571C289.887 262.835 280.933 268.729 271.109 274.624C254.322 284.657 238.778 291.931 236.042 293.185L235.545 293.436C235.296 293.561 234.923 293.686 234.674 293.812C231.814 294.941 228.332 295.818 224.477 296.32C222.736 296.571 220.871 296.696 219.006 296.696H216.519C210.177 296.571 204.208 295.442 199.98 293.436C199.98 293.436 199.109 293.059 197.493 292.307C197.368 292.182 197.12 292.182 196.995 292.056C196.871 291.931 196.747 291.931 196.622 291.805C196.498 291.805 196.498 291.68 196.374 291.68C196.249 291.68 196.125 291.554 196.001 291.554C195.876 291.429 195.752 291.429 195.503 291.304H195.379C189.037 288.795 177.099 282.776 164.415 275.251C145.887 264.34 135.938 256.69 130.84 252.927C126.239 249.541 125.244 247.033 121.14 247.033H111.565C107.835 247.033 107.835 250.294 108.705 251.548C112.56 257.317 116.788 261.832 121.513 265.343C122.135 265.845 137.306 277.132 156.456 288.545C157.451 289.172 158.446 289.799 159.565 290.3C177.348 300.584 192.643 307.607 193.513 308.109C199.607 310.868 207.565 312.498 216.021 312.749H217.762C218.881 312.749 220.001 312.749 221.12 312.624C222.363 312.624 223.607 312.498 224.85 312.373C231.192 311.746 237.161 310.241 241.887 308.109C241.887 308.109 242.011 308.109 242.011 307.984C244.125 306.98 260.539 299.33 278.819 288.545C289.14 282.399 298.218 276.38 304.56 271.99C310.032 268.102 313.513 265.594 313.762 265.343C316.747 263.086 319.607 260.201 322.342 256.941C329.306 248.538 334.902 237.376 337.016 227.218C337.016 227.092 337.016 226.967 337.14 226.842C337.265 225.964 337.513 225.086 337.638 224.333V223.957C337.762 223.455 337.762 222.954 337.762 222.578C337.762 222.327 338.135 219.317 338.508 214.426V213.924C338.757 213.548 338.757 213.172 338.757 212.67" fill="url(#paint0_linear)"/>
</g>
<defs>
<linearGradient id="paint0_linear" x1="224.112" y1="47" x2="224.112" y2="312.979" gradientUnits="userSpaceOnUse">
<stop offset="0.398" stop-color="#1466AC"/>
<stop offset="0.659" stop-color="#EF4058"/>
</linearGradient>
<clipPath id="clip0">
<rect width="240" height="266" fill="white" transform="translate(100 47)"/>
</clipPath>
</defs>
</svg>
