<svg width="22" height="13" viewBox="0 0 22 13" fill="none" xmlns="http://www.w3.org/2000/svg">
<path d="M14.6726 10.7156C14.2938 11.1175 14.3127 11.7504 14.7146 12.1292C15.1166 12.5079 15.7495 12.4891 16.1282 12.0871L14.6726 10.7156ZM20.3007 6.20075L21.0285 6.88653C21.3914 6.50137 21.3914 5.90013 21.0285 5.51497L20.3007 6.20075ZM16.1282 0.314356C15.7495 -0.0876017 15.1166 -0.106417 14.7146 0.27233C14.3127 0.651077 14.2938 1.28396 14.6726 1.68592L16.1282 0.314356ZM16.1282 12.0871L21.0285 6.88653L19.5729 5.51497L14.6726 10.7156L16.1282 12.0871ZM21.0285 5.51497L16.1282 0.314356L14.6726 1.68592L19.5729 6.88653L21.0285 5.51497Z" fill="#A6C4D6"/>
<line y1="6.20117" x2="20.3013" y2="6.20117" stroke="#A6C4D6" stroke-width="2"/>
</svg>
