<svg width="16" height="10" viewBox="0 0 16 10" fill="none" xmlns="http://www.w3.org/2000/svg">
<path d="M14.9543 3.45787C14.7734 2.95899 14.5489 2.47258 14.2557 2.00488C13.9657 1.54029 13.5977 1.0913 13.1237 0.717141C12.6528 0.346099 12.0353 0.0654781 11.3805 0.012472L11.1372 0C11.053 0.003118 10.9595 0.00311799 10.8721 0.012472C10.6944 0.03118 10.526 0.0717141 10.3669 0.118484C10.0457 0.21826 9.76507 0.367924 9.51871 0.530061C9.07588 0.823153 8.72349 1.16302 8.4054 1.51223C8.40852 1.51847 8.41476 1.52159 8.41788 1.52782L8.48649 1.61513C8.64553 1.82403 8.99168 2.3042 9.30042 2.82179C9.68399 2.44763 10.183 1.99552 10.3888 1.86457C10.5447 1.76791 10.6975 1.69308 10.8347 1.65254C10.9064 1.63383 10.9719 1.61824 11.0343 1.61513C11.0655 1.60889 11.0936 1.61201 11.1279 1.60889L11.2464 1.61513C11.552 1.64319 11.8514 1.76791 12.1351 1.98617C12.6996 2.43516 13.1455 3.19907 13.4356 4.00664C13.7318 4.81732 13.9002 5.70283 13.9096 6.55716C13.9096 6.96562 13.8565 7.35849 13.7318 7.68276C13.6102 8.01015 13.3015 8.13487 12.9522 8.13487C12.4439 8.13487 12.0759 7.91661 11.7796 7.61105C11.4553 7.27119 11.1497 6.89079 10.8565 6.48545C10.6133 6.14559 10.3763 5.79325 10.1518 5.43468C9.75572 4.79237 9.22557 3.97857 8.85759 3.29885L8 2.00488C7.90333 1.88327 7.80977 1.76167 7.70686 1.64007C7.36071 1.2472 6.97713 0.860569 6.48129 0.530061C6.23493 0.367924 5.95426 0.21826 5.63306 0.118484C5.47401 0.0717141 5.30561 0.03118 5.12786 0.012472C5.07173 0.006236 5.01559 0.00311808 4.95946 0.00311808C4.92516 0.00311808 4.89397 0 4.86279 0L4.61954 0.012472C3.96466 0.0654781 3.34719 0.346099 2.8763 0.717141C2.40229 1.0913 2.0343 1.54029 1.74428 2.00488C1.45114 2.47258 1.22661 2.95899 1.04574 3.45787C0.693347 4.45563 0.503119 5.48769 0.5 6.55404C0.503119 7.10905 0.574844 7.68588 0.799376 8.25959C1.01767 8.82083 1.42931 9.41637 2.0842 9.74688C2.40541 9.91214 2.77027 9.99944 3.11954 9.99944C3.50312 10.0088 3.86798 9.89966 4.158 9.75935C4.74116 9.46938 5.14345 9.08586 5.50832 8.69923C6.22869 7.91661 6.76195 7.06852 7.25468 6.20483C7.39189 5.96786 7.52287 5.72466 7.65073 5.47833C7.58524 5.3505 7.51975 5.21642 7.45114 5.07611C7.2578 4.75496 7.01767 4.37456 6.84304 4.10953C6.5842 4.57723 6.31601 5.03246 6.03846 5.48457C5.54262 6.27031 5.00936 7.03422 4.41372 7.66094C4.11746 7.9665 3.79002 8.23465 3.50312 8.36249C3.35655 8.42485 3.24428 8.44667 3.14761 8.44044C3.01351 8.44044 2.90125 8.40926 2.79522 8.35313C2.58628 8.244 2.38981 8.01015 2.26819 7.68276C2.14345 7.35849 2.09044 6.96562 2.09044 6.55716C2.09979 5.70283 2.26819 4.81732 2.56445 4.00664C2.85447 3.19907 3.30042 2.43516 3.86486 1.98617C4.14865 1.76791 4.44803 1.64319 4.75364 1.61513L4.87214 1.60889C4.90645 1.61201 4.93451 1.60889 4.9657 1.61513C5.02807 1.61824 5.09356 1.63383 5.16528 1.65254C5.24636 1.67749 5.33368 1.71178 5.42412 1.75855C5.48649 1.78973 5.54886 1.82403 5.61123 1.86457C5.92308 2.06412 6.23181 2.35721 6.52183 2.68148C6.74636 2.93404 6.96154 3.21466 7.17672 3.50152L8 4.77678C8.23389 5.26007 8.47713 5.74025 8.74532 6.20483C9.23805 7.06852 9.77131 7.91661 10.4917 8.69923C10.7037 8.92685 10.9314 9.15134 11.1996 9.35401C11.3898 9.50368 11.5988 9.63775 11.842 9.75935C12.132 9.89966 12.4969 10.0088 12.8805 9.99944C13.2297 9.99944 13.5946 9.91214 13.9158 9.74688C14.5707 9.41637 14.9823 8.82083 15.2006 8.25959C15.4252 7.68588 15.4969 7.10905 15.5 6.55404C15.4969 5.48769 15.3067 4.45563 14.9543 3.45787Z" fill="#4C4C4C"/>
</svg>
