<svg width="16" height="26" viewBox="0 0 16 26" fill="none" xmlns="http://www.w3.org/2000/svg">
<path fill-rule="evenodd" clip-rule="evenodd" d="M15 7C15 10.866 11.866 14 8 14C4.13401 14 1 10.866 1 7C1 3.13401 4.13401 0 8 0C11.866 0 15 3.13401 15 7ZM4.22001 7C4.22001 9.08763 5.91237 10.78 8 10.78C10.0876 10.78 11.78 9.08763 11.78 7C11.78 4.91237 10.0876 3.22001 8 3.22001C5.91237 3.22001 4.22001 4.91237 4.22001 7ZM9.75169 17.9839L14.8839 23.1161C15.372 23.6043 15.372 24.3957 14.8839 24.8839C14.3957 25.372 13.6043 25.372 13.1161 24.8839L8 19.7678L2.88388 24.8839C2.39573 25.372 1.60427 25.372 1.11612 24.8839C0.627961 24.3957 0.627961 23.6043 1.11612 23.1161L6.20577 18.0265C4.17053 17.7153 2.2064 16.8227 0.579023 15.3488C0.2306 15.1244 0 14.734 0 14.29C0 13.5941 0.56636 13.03 1.265 13.03C1.6418 13.03 1.98012 13.1941 2.21187 13.4544C5.40431 16.388 10.3147 16.3837 13.5021 13.4415L13.5027 13.4421C13.7347 13.1715 14.0797 13 14.465 13C15.1636 13 15.73 13.5641 15.73 14.26C15.73 14.6997 15.5039 15.0867 15.1612 15.3122C13.5945 16.7453 11.7115 17.6359 9.75169 17.9839Z" fill="white"/>
</svg>
