<svg width="11" height="14" viewBox="0 0 11 14" fill="none" xmlns="http://www.w3.org/2000/svg">
<path d="M5.5 0C3.21488 0 1.375 1.78413 1.375 4V4.66667C0.623519 4.66667 0 5.27129 0 6V12.6667C0 13.3954 0.623519 14 1.375 14H9.625C10.3765 14 11 13.3954 11 12.6667V6C11 5.27129 10.3765 4.66667 9.625 4.66667V4C9.625 1.78413 7.78512 0 5.5 0ZM5.5 1.33333C7.06488 1.33333 8.25 2.48254 8.25 4V4.66667H2.75V4C2.75 2.48254 3.93512 1.33333 5.5 1.33333ZM1.375 6H9.625V12.6667H1.375V6ZM5.5 8C4.74375 8 4.125 8.6 4.125 9.33333C4.125 10.0667 4.74375 10.6667 5.5 10.6667C6.25625 10.6667 6.875 10.0667 6.875 9.33333C6.875 8.6 6.25625 8 5.5 8Z" fill="#B4B4B4"/>
</svg>
