<svg width="80" height="80" viewBox="0 0 80 80" fill="none" xmlns="http://www.w3.org/2000/svg">
<rect width="80" height="80" rx="9" fill="#E53935"/>
<g filter="url(#filter0_d_211_264)">
<path d="M38.6844 34.4736L31.316 50.7894M38.6844 34.4736L47.1055 46.0526M38.6844 34.4736L39.737 31.8421L40.7897 28.6842L41.316 25V21.8421L40.7897 19.2105L39.737 17.6315L38.1581 17.1052L36.5792 17.6315L35.0002 18.6842L34.4739 20.7894V23.421L35.0002 26.0526L35.5265 28.1579L36.5792 30.2631L37.6318 32.3684L38.1581 33.421L38.6844 34.4736ZM31.316 50.7894L29.737 54.4736L27.1055 58.1579L23.9476 61.3158L20.2634 62.8947L17.1055 61.3158V58.1579L19.2107 56.0526L21.8423 54.4736L25.0002 52.8947L28.1581 51.3158L31.316 50.7894ZM31.316 50.7894L47.1055 46.0526M47.1055 46.0526L48.6844 47.6315L50.7897 49.2105L52.8949 50.2631L56.0528 51.3158L59.737 51.8421L61.8423 50.7894L62.8949 49.2105L62.3686 47.1052L60.7897 45.5263L57.6318 45H53.9476H49.737L48.1581 45.5263L47.1055 46.0526Z" stroke="white" stroke-width="3" stroke-linecap="round" stroke-linejoin="round" shape-rendering="crispEdges"/>
</g>
<defs>
<filter id="filter0_d_211_264" x="11.6055" y="12.6052" width="62.7896" height="62.7894" filterUnits="userSpaceOnUse" color-interpolation-filters="sRGB">
<feFlood flood-opacity="0" result="BackgroundImageFix"/>
<feColorMatrix in="SourceAlpha" type="matrix" values="0 0 0 0 0 0 0 0 0 0 0 0 0 0 0 0 0 0 127 0" result="hardAlpha"/>
<feOffset dx="3" dy="4"/>
<feGaussianBlur stdDeviation="3.5"/>
<feComposite in2="hardAlpha" operator="out"/>
<feColorMatrix type="matrix" values="0 0 0 0 0 0 0 0 0 0 0 0 0 0 0 0 0 0 0.25 0"/>
<feBlend mode="normal" in2="BackgroundImageFix" result="effect1_dropShadow_211_264"/>
<feBlend mode="normal" in="SourceGraphic" in2="effect1_dropShadow_211_264" result="shape"/>
</filter>
</defs>
</svg>
