<svg width="14" height="9" viewBox="0 0 14 9" fill="none" xmlns="http://www.w3.org/2000/svg">
<path d="M13.9245 8.06764C13.3528 6.99 11.8799 5.6951 11.2719 5.13162C11.1055 4.97734 11.0877 4.71043 11.2391 4.53982C12.3995 3.23392 13.3276 1.73342 13.6471 0.826724C13.788 0.426191 13.4963 0.00299894 13.0852 0.00299894H11.8911C11.4975 0.00299894 11.2671 0.15095 11.1573 0.386538C10.1929 2.45618 9.36569 3.35188 8.7866 3.87538C8.46238 4.16861 7.95679 3.92569 7.95679 3.47951C7.95679 2.61979 7.95679 1.5085 7.95679 0.720426C7.95679 0.338221 7.65834 0.0289903 7.29021 0.0289903L5.10878 0.00299894C4.8342 0.00299894 4.67733 0.328557 4.84215 0.556814L5.20233 1.0983C5.33787 1.2859 5.41105 1.51416 5.41105 1.74842L5.40914 4.18694C5.40914 4.61113 4.9182 4.81839 4.62674 4.52116C3.64071 3.51549 2.78513 1.46185 2.47713 0.47984C2.38804 0.195601 2.13382 0.00366539 1.84555 0.00299894L0.669248 0C0.227935 0 -0.0946973 0.438187 0.0252557 0.879374C1.10006 4.83039 3.30535 8.58914 7.23548 8.99667C7.62271 9.03665 7.95679 8.7101 7.95679 8.3059V7.02432C7.95679 6.65678 8.23202 6.34089 8.58583 6.33156C8.59824 6.33122 8.61065 6.33122 8.62306 6.33122C9.66255 6.33122 10.8268 7.9157 11.234 8.65678C11.3511 8.87004 11.57 9 11.8067 9H13.389C13.8507 9 14.1469 8.48717 13.9245 8.06764Z" fill="#4C4C4C"/>
</svg>
