<svg width="23" height="13" viewBox="0 0 23 13" fill="none" xmlns="http://www.w3.org/2000/svg">
<path d="M21.9879 12.2735C21.2018 12.7445 18.0042 12.8847 17.2302 12.3467C16.8056 12.0519 16.4174 11.6826 16.0485 11.3315C15.791 11.0858 15.4979 10.9665 15.2765 10.6999C15.0961 10.4815 14.9719 10.2241 14.7813 10.0093C14.4599 9.64777 13.9647 9.34042 13.5728 9.78196C12.9833 10.4458 13.6658 11.7508 12.8794 12.247C12.6157 12.4137 12.3497 12.4619 12.0203 12.4381L11.2905 12.4699C10.8616 12.4779 10.1825 12.4815 9.69511 12.3973C9.15076 12.3036 8.7019 12.0191 8.21042 11.8103C7.27662 11.4142 6.38668 10.8745 5.70981 10.1268C3.86772 8.09077 1.39323 5.29036 0.432056 2.73036C0.23391 2.20432 -0.287737 1.16324 0.207159 0.711878C0.880293 0.244151 4.18531 0.111748 4.70042 0.835653C4.91008 1.12932 5.04197 1.56045 5.19003 1.89339C5.37418 2.30875 5.47434 2.70061 5.76238 3.06836C6.01745 3.39476 6.20595 3.72264 6.40348 4.08058C6.62526 4.48195 6.83429 4.86697 7.10398 5.2368C7.28689 5.48822 7.77059 5.98778 8.07605 6.02527C8.82197 6.11662 8.77531 4.38258 8.71994 3.95889C8.66706 3.55096 8.65306 3.11835 8.66706 2.70447C8.67919 2.3516 8.71247 1.85441 8.4938 1.5661C8.13764 1.096 7.34443 1.44798 7.28222 0.816313C7.41349 0.636898 7.38549 0.477717 8.26082 0.202199C8.94981 -0.0147047 9.39494 -0.00786158 9.8494 0.0269501C10.7764 0.0980612 11.759 -0.14205 12.6533 0.14537C13.5075 0.42059 13.3756 1.58187 13.347 2.27811C13.3087 3.22873 13.3494 4.15615 13.347 5.12047C13.3457 5.55993 13.3277 5.98689 13.887 5.95148C14.412 5.91786 14.4652 5.49566 14.7156 5.14695C15.0643 4.66107 15.3838 4.16865 15.7387 3.68426C16.2168 3.02998 16.3608 2.29477 16.8109 1.62442C16.9721 1.38431 17.1105 0.860348 17.3584 0.670817C17.5463 0.527703 17.9027 0.588995 18.1298 0.588995H18.6698C19.0835 0.593756 19.5053 0.599409 19.9299 0.613691C20.5418 0.633923 21.227 0.506876 21.8339 0.588698C24.4518 0.94217 18.5435 6.29871 18.8509 7.25439C19.0636 7.91433 20.4111 8.6537 20.8976 9.19462C21.5462 9.91407 23.5342 11.3479 21.9879 12.2735Z" fill="white"/>
</svg>
